<?xml version="1.0" encoding="iso-8859-1"?>
<!-- Generator: Adobe Illustrator 19.0.0, SVG Export Plug-In . SVG Version: 6.00 Build 0)  -->
<svg version="1.1" id="Capa_1" xmlns="http://www.w3.org/2000/svg" xmlns:xlink="http://www.w3.org/1999/xlink" x="0px" y="0px"
	 viewBox="0 0 512 512" style="enable-background:new 0 0 512 512;" xml:space="preserve" fill="white">
<g>
	<g>
		<path d="M473.399,134.797c-0.137-0.048-0.273-0.096-0.411-0.141L76.095,2.908c-20.899-6.841-43.537-1.412-59.078,14.17
			C1.419,32.718-3.965,55.474,2.996,76.545l132.82,396.454c0.038,0.113,0.077,0.226,0.117,0.338
			c8.34,23.488,29.802,38.663,54.682,38.663c0.003,0,0.007,0,0.01,0c24.797-0.004,46.195-15.081,54.591-38.432l62.83-164.537
			l165.733-64.777c23.246-8.456,38.235-29.892,38.218-54.701C511.979,164.636,496.829,143.144,473.399,134.797z M459.999,206.699
			c-0.182,0.065-0.362,0.133-0.542,0.203l-174.22,68.094c-5.252,2.052-9.394,6.226-11.405,11.494l-66.065,173.007
			c-0.057,0.149-0.111,0.299-0.165,0.449c-3.965,11.181-14.003,12.051-16.985,12.052c-2.969,0-12.935-0.859-16.938-11.903
			L43.591,71.791l167.241,167.331c3.905,3.908,9.026,5.862,14.147,5.862c5.116,0,10.234-1.951,14.14-5.854
			c7.813-7.809,7.815-20.473,0.007-28.286L72.103,43.732l388.044,128.811c10.981,4.012,11.845,14.046,11.847,17.039
			C471.996,192.589,471.137,202.713,459.999,206.699z"/>
	</g>
</g>
<g>
</g>
<g>
</g>
<g>
</g>
<g>
</g>
<g>
</g>
<g>
</g>
<g>
</g>
<g>
</g>
<g>
</g>
<g>
</g>
<g>
</g>
<g>
</g>
<g>
</g>
<g>
</g>
<g>
</g>
</svg>
